<svg  id="thumbs-up" xmlns="http://www.w3.org/2000/svg" width="32px" height="32px" viewBox="0 0 32 32" >
<path fill="none" stroke="#000000" stroke-width="2" stroke-linecap="round" stroke-linejoin="round" d="
	M30,22.6c1.8-1.4,1.8-4.2,0-5.6c-0.1-0.1-0.1-0.1-0.1-0.2c0.3-0.7,0.3-1.5,0.1-2.2c-0.4-1.6-2-2.8-3.7-2.8c-2.5,0-4.9,0-7.4,0
	c-0.1,0-0.1,0-0.2,0c0.1-0.2,0.3-0.4,0.4-0.5c0.8-1,1.6-2.1,2.2-3.2c0.5-0.9,0.8-1.8,0.8-2.8c0.1-1.1-0.2-2.1-0.8-3.1
	c-0.4-0.5-0.8-0.9-1.5-1.1C19.6,1,19.3,1,19.1,1c-0.6-0.1-1.3-0.1-1.9,0.1c-0.4,0.1-0.6,0.4-0.7,0.7c0,0.2,0,0.3,0,0.5
	c0,0.4-0.1,0.7-0.1,1.1c-0.3,1.5-1,2.7-2,3.8c-1.9,2.2-3.9,4.2-5.8,6.3l0.1,15.3c1.1,0.4,2.1,0.8,3.2,1.2c2.1,0.6,4.2,0.9,6.3,0.9
	c2.1,0,4.2,0,6.3,0c1.1,0,2.1-0.3,2.9-1.1c0.8-0.7,1.3-1.6,1.2-2.6c0-0.1,0-0.2,0.1-0.3c1.4-1,1.9-2.7,1.3-4.3
	C29.9,22.7,29.9,22.6,30,22.6z"/>
<path fill="none" stroke="#000000" stroke-width="2" stroke-linecap="round" stroke-linejoin="round" d="
	M8.5,13C6.5,13,3,13,0.9,13c0,5.8,0,11,0,16.8c2,0,5.6,0.1,7.6,0.1C8.5,20.8,8.5,16.5,8.5,13z"/>
</svg>
